<svg width="100" height="100" xmlns="http://www.w3.org/2000/svg">

 <g>
  <title>Layer 1</title>
  <g stroke="null">
   <path stroke="null" fill="#ff6600" p-id="12791" d="m87.18003,41.7383l-25.8425,0c-2.06667,-0.24847 -3.64128,-2.07182 -3.64128,-4.22038l0,-27.1858a4.16615,4.17653 0 0 0 -4.16615,-4.18018l-9.04305,0c-2.31453,0 -4.17344,1.88181 -4.17344,4.18384l0,27.47081c-0.11299,2.07182 -1.81882,3.7417 -3.86726,3.93171l-6.76862,0a4.22447,4.23499 0 0 1 -3.6595,-3.93536l0,-27.46716c0,-2.32029 -1.87713,-4.18384 -4.16979,-4.18384l-9.0467,0c-2.31088,0 -4.16979,1.88181 -4.16979,4.18384l0,79.32846c0,2.32029 1.87714,4.18384 4.16979,4.18384l74.39651,0c2.31453,0 4.16979,-1.88181 4.16979,-4.18384l0,-43.7421a4.18437,4.1948 0 0 0 -4.18802,-4.18384zm-11.90432,29.99939c0,2.32029 -1.87714,4.18384 -4.16979,4.18384l-9.04305,0a4.16979,4.18018 0 0 1 -4.16979,-4.18384l0,-8.55403c0,-2.32029 1.87714,-4.18384 4.16979,-4.18384l9.04305,0c2.31453,0 4.16979,1.88181 4.16979,4.18384l0,8.55403z"/>
  </g>
 </g>
</svg>